<?xml version="1.0" standalone="no"?>
<!DOCTYPE svg PUBLIC "-//W3C//DTD SVG 20010904//EN"
 "http://www.w3.org/TR/2001/REC-SVG-20010904/DTD/svg10.dtd">
<svg version="1.0" xmlns="http://www.w3.org/2000/svg"
 width="1610.000000pt" height="1610.000000pt" viewBox="0 0 1610.000000 1610.000000"
 preserveAspectRatio="xMidYMid meet">
<metadata>
Created by potrace 1.14, written by Peter Selinger 2001-2017
</metadata>
<g transform="translate(0.000000,1610.000000) scale(0.100000,-0.100000)"
fill="#000000" stroke="none">
<path d="M13530 13209 c-132 -6 -185 -14 -205 -29 -5 -5 -27 -11 -47 -15 -21
-4 -38 -11 -38 -17 0 -5 -4 -7 -9 -3 -5 3 -12 1 -15 -4 -4 -5 -24 -12 -46 -16
-22 -4 -40 -10 -40 -15 0 -12 -457 -236 -484 -238 -5 0 -12 -4 -15 -9 -3 -4
-26 -18 -51 -31 -25 -12 -56 -28 -70 -36 -41 -22 -139 -67 -146 -65 -4 0 -10
-3 -13 -8 -7 -9 -120 -66 -136 -68 -20 -3 -75 -30 -75 -36 0 -4 -13 -10 -30
-14 -16 -4 -33 -12 -37 -18 -8 -13 -54 -36 -113 -58 -19 -7 -52 -25 -73 -40
-21 -15 -51 -31 -68 -34 -16 -4 -29 -10 -29 -15 0 -4 -16 -11 -35 -14 -19 -4
-35 -10 -35 -15 0 -4 -18 -14 -40 -21 -22 -7 -40 -17 -40 -21 0 -4 -13 -10
-30 -14 -16 -4 -30 -10 -30 -14 0 -4 -18 -14 -40 -21 -22 -7 -40 -17 -40 -21
0 -4 -13 -10 -30 -14 -16 -4 -30 -10 -30 -14 0 -4 -18 -14 -40 -21 -22 -7 -40
-17 -40 -21 0 -4 -13 -10 -30 -14 -16 -4 -30 -10 -30 -15 0 -4 -12 -11 -27
-14 -37 -9 -193 -87 -193 -97 0 -4 -13 -10 -30 -14 -16 -4 -30 -10 -30 -15 0
-4 -16 -11 -36 -14 -19 -4 -37 -13 -40 -21 -3 -8 -19 -17 -35 -20 -16 -4 -29
-11 -29 -16 0 -5 -8 -9 -17 -9 -17 0 -84 -30 -173 -76 -25 -13 -88 -45 -140
-71 -52 -26 -97 -50 -100 -53 -3 -3 -21 -12 -40 -19 -19 -7 -55 -22 -80 -33
-25 -11 -47 -20 -49 -18 -2 1 -7 -2 -10 -7 -8 -11 -118 -65 -127 -63 -4 1 -10
-2 -13 -7 -8 -10 -116 -63 -130 -63 -6 0 -11 -4 -11 -10 0 -5 -6 -10 -14 -10
-7 0 -19 -7 -26 -15 -7 -8 -16 -13 -20 -10 -5 3 -21 -2 -37 -10 -15 -8 -41
-18 -58 -22 -16 -4 210 -9 503 -11 l532 -2 0 -938 c0 -765 -3 -956 -15 -1039
-40 -284 -133 -497 -285 -657 -179 -188 -369 -286 -685 -352 -124 -26 -143
-28 -420 -28 -259 -1 -303 1 -414 21 -142 26 -297 76 -403 129 -280 140 -460
366 -544 679 -59 223 -57 199 -61 1233 l-4 952 79 0 c79 0 80 0 111 35 17 20
31 37 31 38 0 4 -52 -1 -152 -13 -141 -17 -218 -77 -253 -195 -8 -30 -23 -59
-33 -64 -9 -6 -12 -11 -7 -11 6 0 17 6 24 13 6 6 15 12 19 13 4 0 21 6 37 13
17 7 41 17 55 21 l25 7 -3 -384 -3 -384 -65 -61 c-35 -34 -64 -66 -64 -71 0
-5 -18 -31 -41 -56 -55 -63 -59 -68 -51 -75 3 -4 12 4 19 16 11 21 12 18 11
-30 -1 -29 -5 -55 -10 -58 -4 -3 -6 -9 -4 -13 3 -4 0 -25 -5 -47 -5 -21 -12
-61 -15 -89 -7 -57 -11 -65 -24 -45 -8 13 -10 12 -10 -2 0 -12 -7 -16 -27 -13
-16 1 -27 7 -27 11 9 58 11 114 4 94 -4 -14 -8 -39 -9 -57 -1 -17 -6 -33 -12
-35 -13 -4 -31 -260 -19 -268 4 -3 11 -30 15 -60 4 -30 11 -60 16 -66 6 -7 8
-16 7 -20 -3 -8 51 -123 62 -134 3 -3 11 -16 18 -30 25 -49 37 -66 70 -98 17
-17 32 -33 32 -36 0 -8 107 -107 150 -138 34 -25 42 -40 64 -111 105 -343 357
-604 697 -721 143 -48 273 -75 503 -104 l59 -7 -39 -20 c-21 -11 -40 -23 -42
-27 -2 -5 -9 -8 -15 -8 -7 0 -48 -18 -92 -40 -44 -22 -85 -40 -90 -40 -6 0
-15 -8 -21 -18 -10 -15 -558 -1455 -998 -2622 l-123 -325 -547 -3 c-336 -1
-546 1 -546 7 0 5 -132 358 -294 783 -431 1132 -622 1633 -724 1903 -49 132
-93 248 -97 258 -7 16 25 17 577 17 434 0 587 -3 596 -12 9 -9 16 -8 29 4 17
15 77 50 148 86 33 16 215 198 215 214 0 6 16 32 35 58 19 26 35 53 35 59 0 9
23 60 50 113 5 9 12 38 16 65 3 28 17 70 30 94 70 129 118 239 141 326 24 88
27 117 27 273 1 150 -3 188 -22 265 -20 78 -80 230 -88 222 -1 -1 7 -34 18
-72 30 -100 32 -415 4 -520 -50 -184 -137 -329 -286 -475 -245 -240 -565 -350
-1019 -350 -359 0 -612 55 -896 195 -120 59 -299 171 -292 183 52 90 137 255
134 258 -3 3 -12 -2 -20 -11 -9 -8 -21 -15 -27 -15 -6 0 -13 -7 -16 -15 -4 -8
-14 -15 -23 -15 -9 0 -33 -11 -52 -25 -20 -13 -39 -21 -43 -18 -3 4 -6 1 -6
-5 0 -7 -7 -12 -16 -12 -8 0 -13 -4 -10 -9 9 -14 -43 -71 -64 -71 -10 0 -20 5
-22 10 -2 7 -23 6 -63 -5 -32 -8 -63 -15 -67 -15 -4 0 -8 71 -8 158 -1 179 -8
225 -44 261 l-26 26 0 -413 0 -412 -1065 0 -1065 0 0 1445 c0 1413 0 1445 -19
1433 -51 -31 -51 -36 -51 -490 l0 -423 -62 -42 c-34 -24 -57 -43 -50 -43 10 0
12 -174 12 -782 0 -626 2 -784 12 -786 7 -2 22 -7 33 -12 11 -4 28 -11 38 -14
15 -5 17 -24 17 -207 0 -222 4 -239 64 -275 29 -18 62 -19 516 -22 480 -4 485
-4 461 -23 -13 -10 -32 -19 -42 -19 -10 0 -19 -4 -19 -10 0 -5 -7 -10 -15 -10
-8 0 -15 -4 -15 -9 0 -5 -12 -13 -27 -19 -19 -6 66 -11 267 -16 162 -3 446
-11 630 -16 357 -11 403 -8 475 33 51 29 92 102 101 183 9 82 28 124 54 124
12 0 64 -30 115 -67 127 -92 254 -172 348 -218 42 -21 77 -42 77 -47 0 -4 7
-8 15 -8 23 0 19 -54 -10 -116 -14 -31 -23 -60 -20 -65 4 -5 1 -9 -4 -9 -6 0
-11 -13 -11 -28 0 -30 -33 -75 -62 -85 -10 -4 -18 -13 -18 -22 0 -8 -4 -15 -9
-15 -5 0 -13 -9 -16 -20 -3 -11 -15 -20 -26 -20 -10 0 -19 -4 -19 -10 0 -5
-11 -12 -25 -16 -27 -7 -33 -20 -12 -27 6 -2 -3 -7 -20 -11 -18 -4 -33 -14
-33 -22 0 -8 -4 -14 -10 -14 -5 0 -10 -6 -10 -13 0 -7 -14 -18 -31 -24 -17 -7
-28 -17 -24 -22 3 -6 1 -11 -4 -11 -6 0 -11 -7 -11 -15 0 -9 -9 -15 -25 -15
-16 0 -25 -6 -25 -15 0 -8 -4 -15 -10 -15 -5 0 -10 -5 -10 -11 0 -18 -28 -39
-44 -33 -14 6 -21 -5 -17 -28 0 -5 -5 -8 -13 -8 -7 0 -19 -13 -26 -29 -7 -18
-22 -32 -38 -36 -32 -8 -76 -50 -67 -64 3 -7 0 -8 -9 -5 -10 4 -16 1 -16 -10
0 -8 -11 -18 -25 -22 -16 -4 -25 -13 -25 -25 0 -10 -4 -19 -10 -19 -6 0 -19
-9 -30 -20 -11 -11 -26 -20 -34 -20 -8 0 -16 -10 -20 -22 -3 -13 -19 -29 -35
-36 -16 -7 -36 -26 -43 -43 -9 -20 -20 -29 -36 -29 -15 0 -26 -7 -29 -20 -3
-11 -14 -20 -24 -20 -11 0 -19 -4 -19 -10 0 -15 -67 -80 -74 -73 -3 4 -12 -7
-18 -25 -8 -21 -21 -33 -40 -37 -17 -4 -32 -17 -40 -36 -9 -20 -20 -29 -37
-29 -19 0 -22 -4 -18 -20 4 -17 2 -20 -14 -15 -13 5 -17 2 -14 -7 4 -9 -10
-20 -40 -32 -25 -11 -45 -22 -45 -26 0 -4 -12 -11 -27 -15 -15 -3 -39 -15 -54
-26 -15 -10 -33 -19 -40 -19 -10 0 -11 -2 0 -12 10 -11 14 -10 22 5 6 9 17 17
24 17 8 0 15 5 15 10 0 6 6 10 14 10 7 0 34 11 60 25 26 14 56 25 67 25 10 0
19 4 19 10 0 5 18 15 40 21 23 7 39 17 37 23 -3 6 9 12 26 12 17 1 33 6 35 13
2 6 8 9 13 5 5 -3 9 -1 9 5 0 5 14 12 30 16 17 4 30 10 30 15 0 5 14 11 30 15
17 4 30 11 30 16 0 6 5 7 10 4 6 -3 10 -2 10 4 0 5 13 12 30 16 16 4 30 10 30
15 0 5 13 11 30 15 16 4 30 11 30 16 0 6 5 7 10 4 6 -3 10 -2 10 3 0 6 12 13
28 16 38 10 312 146 312 156 0 5 14 12 32 15 17 4 65 25 106 46 42 22 84 39
94 39 10 0 18 4 18 9 0 5 13 12 30 16 16 4 33 12 37 18 9 13 113 67 127 66 5
0 12 3 15 8 7 9 121 67 136 69 6 1 27 8 47 18 21 9 42 16 48 16 5 0 10 4 10 8
0 11 80 35 88 27 4 -3 79 -196 168 -428 148 -389 160 -423 144 -437 -24 -22
-96 -60 -114 -60 -8 0 -16 -3 -18 -7 -1 -5 -86 -50 -188 -101 -102 -51 -196
-98 -210 -106 -14 -7 -41 -20 -60 -28 -19 -9 -48 -21 -65 -28 -16 -8 -32 -14
-35 -15 -25 -8 -79 -36 -82 -43 -1 -4 -68 -40 -148 -79 -153 -75 -180 -87
-192 -85 -5 1 -8 -2 -8 -7 0 -5 -14 -12 -30 -16 -17 -4 -30 -10 -30 -14 0 -7
-60 -34 -72 -32 -5 0 -8 -3 -8 -8 0 -5 -14 -12 -30 -16 -17 -4 -30 -10 -30
-14 0 -7 -60 -34 -72 -32 -5 0 -8 -3 -8 -8 0 -5 -13 -12 -30 -16 -16 -4 -30
-10 -30 -14 0 -4 -18 -14 -40 -21 -22 -7 -40 -16 -40 -21 0 -4 -12 -10 -28
-13 -23 -6 -110 -47 -212 -101 -14 -7 -43 -21 -65 -32 -22 -10 -42 -21 -45
-25 -3 -3 -18 -10 -33 -13 -15 -4 -31 -12 -35 -19 -9 -14 -68 -43 -105 -52
-15 -3 -31 -11 -35 -18 -4 -6 -18 -17 -32 -24 -14 -7 -38 -20 -55 -29 -37 -20
-225 -207 -225 -224 0 -6 -11 -27 -25 -45 -14 -18 -25 -37 -25 -43 0 -6 -4
-11 -10 -11 -5 0 -10 -8 -10 -18 0 -10 -9 -36 -20 -57 -12 -22 -24 -60 -27
-85 -3 -25 -11 -48 -17 -52 -15 -10 -15 -286 0 -296 6 -4 14 -27 17 -52 3 -25
15 -63 27 -85 11 -21 20 -47 20 -57 0 -10 3 -18 8 -18 7 0 18 -17 48 -80 20
-42 241 -263 254 -255 6 4 10 2 10 -4 0 -5 13 -12 30 -16 16 -4 30 -10 30 -14
0 -7 60 -34 73 -32 4 0 7 -3 7 -8 0 -5 17 -12 38 -16 20 -4 43 -12 51 -18 20
-17 362 -17 382 0 8 6 32 15 54 19 22 4 65 19 95 34 30 16 71 33 90 40 19 7
58 22 85 35 28 12 66 29 85 36 19 7 37 16 40 21 8 11 328 170 375 187 22 8 42
17 45 20 7 9 117 61 129 61 6 0 11 4 11 8 0 7 35 23 65 31 6 1 24 13 42 27 30
23 77 46 98 49 15 2 69 28 75 36 3 4 24 12 46 18 23 6 47 18 54 26 7 8 19 15
26 15 8 0 14 4 14 8 0 8 56 35 77 36 7 1 18 7 25 14 6 6 18 12 25 12 7 0 13 4
13 8 0 8 60 36 73 33 4 0 7 3 7 8 0 5 14 12 30 16 17 4 30 11 30 16 0 5 8 9
17 9 10 0 85 33 168 74 176 87 266 129 269 124 1 -2 9 -19 16 -38 20 -54 59
-101 96 -116 27 -11 132 -14 555 -14 520 0 521 0 561 22 52 30 70 70 249 543
79 209 147 382 151 383 5 2 15 10 22 18 8 8 19 14 24 14 6 0 12 3 14 8 2 4 44
27 93 52 50 25 92 47 95 50 7 8 63 34 75 36 24 3 65 24 65 34 0 5 7 10 16 10
21 0 245 110 264 130 4 5 57 31 70 35 21 7 53 21 100 43 30 15 61 26 67 24 7
-2 13 1 13 7 0 5 14 12 31 16 17 4 33 13 35 20 3 7 25 18 50 25 24 7 44 16 44
21 0 5 7 6 15 3 13 -5 15 -80 15 -588 l0 -581 -54 -33 c-30 -17 -59 -32 -64
-32 -6 0 -12 -3 -14 -7 -1 -5 -25 -19 -53 -32 -54 -26 -108 -61 -113 -73 -2
-5 -10 -8 -17 -8 -7 0 -35 -20 -63 -45 -27 -25 -54 -45 -59 -45 -11 0 -53 -43
-53 -54 0 -4 -16 -26 -35 -49 -19 -22 -35 -47 -35 -54 0 -7 -4 -13 -10 -13 -5
0 -10 -6 -10 -14 0 -7 -7 -19 -15 -26 -9 -7 -20 -32 -26 -56 -6 -24 -15 -44
-20 -44 -5 0 -11 -22 -15 -50 -4 -27 -10 -50 -14 -50 -3 0 -5 -13 -2 -29 2
-16 -1 -32 -7 -35 -15 -9 -15 -222 0 -231 6 -4 9 -21 8 -39 -1 -17 3 -44 10
-59 6 -16 11 -34 11 -42 0 -8 4 -16 9 -19 5 -3 12 -22 15 -41 4 -19 11 -35 16
-35 6 0 9 -3 9 -7 -3 -13 25 -73 33 -73 4 0 8 -5 8 -11 0 -25 141 -177 208
-224 55 -38 112 -73 135 -81 9 -3 17 -10 17 -14 0 -4 26 -13 58 -20 31 -7 62
-16 68 -21 6 -5 39 -12 73 -15 34 -4 64 -11 67 -15 7 -12 111 -12 118 0 3 4
37 11 77 14 39 3 76 10 82 15 7 5 27 13 45 17 18 4 63 22 99 41 37 18 82 37
100 40 18 3 33 10 33 14 0 5 14 11 30 15 17 4 30 10 30 14 0 4 19 14 43 22 23
7 60 24 82 36 22 13 51 28 65 35 14 7 27 15 30 18 8 9 118 60 129 60 5 0 11 3
13 8 3 8 112 62 124 62 12 0 157 72 189 94 17 12 33 21 37 21 3 0 10 3 14 8 4
4 15 7 25 7 10 0 22 6 26 13 6 10 49 34 73 42 32 10 119 49 150 67 8 4 22 11
30 14 8 3 22 9 30 14 14 8 176 89 570 284 85 42 162 81 170 86 31 18 166 79
190 86 14 4 43 19 65 35 22 15 54 31 70 35 17 4 44 17 60 29 31 23 155 84 166
81 3 0 12 4 20 10 8 6 32 17 54 24 22 7 42 16 45 20 3 4 26 14 52 23 46 15 50
15 183 -19 187 -47 333 -64 543 -64 384 0 682 74 912 226 291 192 473 495 497
824 l6 85 44 28 c24 15 50 27 57 27 8 0 19 6 25 13 6 8 28 19 50 25 21 7 44
19 51 27 7 8 19 15 26 15 8 0 14 4 14 8 0 4 12 13 28 20 51 23 82 43 82 53 0
5 6 9 13 9 26 1 227 208 227 234 0 5 8 20 19 34 10 15 22 42 26 60 3 17 10 32
14 32 5 0 14 28 21 63 7 34 17 66 21 71 5 6 9 32 9 58 0 36 4 48 15 48 12 0
15 15 15 78 -1 70 -2 75 -15 58 -14 -18 -15 -16 -15 32 0 29 -4 52 -10 52 -5
0 -10 12 -10 28 0 25 -18 85 -31 107 -4 6 -10 25 -14 43 -3 17 -11 32 -17 32
-6 0 -8 3 -5 7 4 3 -4 21 -18 39 -14 18 -25 38 -25 44 0 15 -199 214 -231 231
-122 65 -220 109 -240 109 -14 0 -30 5 -36 11 -5 5 -46 14 -90 18 -44 5 -85
11 -90 14 -6 4 -17 -1 -25 -11 -9 -9 -95 -161 -193 -337 -97 -176 -181 -324
-185 -329 -5 -5 -21 0 -37 11 -118 84 -331 181 -470 215 -125 30 -330 32 -388
3 -33 -17 -40 -25 -40 -49 0 -45 43 -64 208 -92 167 -29 308 -68 467 -131 370
-145 569 -328 640 -585 43 -156 44 -385 4 -543 -68 -263 -282 -518 -549 -652
-232 -117 -565 -170 -922 -145 -266 19 -490 80 -733 202 -92 46 -270 153 -270
163 0 4 421 780 426 786 2 2 36 -18 76 -44 230 -148 556 -255 776 -255 134 0
192 23 192 75 0 46 -42 62 -255 100 -550 96 -968 365 -1071 689 -61 194 -55
463 15 640 24 60 3 33 -33 -42 -90 -192 -119 -438 -76 -652 l23 -113 -24 -19
c-13 -10 -35 -21 -49 -25 -14 -3 -27 -9 -30 -12 -3 -4 -81 -44 -175 -89 -93
-46 -177 -87 -185 -93 -22 -13 -62 -30 -65 -27 -2 2 -4 140 -6 308 l-4 305 28
83 c26 79 27 92 27 287 0 209 3 235 25 235 8 0 20 6 27 13 7 6 36 23 63 37 28
14 51 28 53 32 2 4 19 10 37 14 19 3 39 12 46 20 6 8 18 14 26 14 16 0 96 41
101 53 2 4 9 7 15 7 15 0 121 53 125 63 2 4 9 7 17 7 7 0 18 6 25 14 6 8 17
13 24 10 7 -3 19 2 26 11 7 8 21 15 31 15 11 0 19 4 19 9 0 5 15 13 33 17 17
3 43 15 56 25 13 11 32 19 42 19 10 0 20 4 24 10 5 8 281 147 445 224 57 27
91 47 100 57 3 3 19 9 35 13 17 4 41 15 55 24 14 9 48 28 75 42 28 14 65 35
83 48 17 13 32 20 32 16 0 -4 11 5 25 20 13 14 28 26 33 26 9 0 70 64 105 111
91 122 152 237 162 309 4 25 12 51 18 58 14 18 15 301 0 310 -6 4 -13 28 -17
55 -4 26 -11 47 -17 47 -5 0 -9 8 -9 18 0 10 -16 47 -35 82 -19 36 -41 79 -50
97 -16 34 -201 223 -218 223 -5 0 -25 11 -43 25 -18 14 -37 25 -43 25 -6 0
-11 4 -11 9 0 5 -25 15 -55 22 -30 7 -55 15 -55 19 0 4 -24 11 -52 14 -29 4
-58 12 -65 18 -16 13 -269 14 -286 1 -6 -6 -31 -13 -55 -17 -24 -3 -51 -10
-60 -15 -9 -5 -37 -14 -62 -21 -41 -10 -108 -38 -120 -50 -20 -20 -322 -170
-342 -170 -10 0 -18 -4 -18 -10 0 -5 -8 -10 -17 -10 -9 0 -24 -6 -32 -13 -9
-8 -32 -20 -51 -27 -19 -8 -37 -16 -40 -20 -4 -5 -57 -31 -70 -35 -12 -3 -65
-30 -70 -35 -4 -4 -53 -29 -70 -35 -38 -14 -70 -31 -70 -36 0 -4 -12 -10 -27
-13 -16 -4 -140 -62 -278 -130 -269 -133 -339 -166 -355 -166 -5 0 -10 -4 -10
-10 0 -5 -6 -10 -14 -10 -7 0 -19 -7 -26 -15 -7 -8 -39 -22 -71 -31 -32 -9
-64 -23 -70 -30 -6 -8 -17 -14 -25 -14 -10 0 -8 13 7 58 11 31 29 95 40 142
41 175 49 270 49 638 0 306 2 352 15 352 8 0 15 4 15 10 0 5 11 12 25 16 14 3
25 9 25 13 0 3 25 17 55 31 30 14 55 28 55 33 0 4 7 7 16 7 21 0 122 48 159
76 17 12 47 27 67 32 20 6 54 23 74 39 21 15 38 27 38 25 2 -6 66 23 66 30 0
4 8 8 17 8 10 0 135 58 278 129 300 149 347 171 363 171 7 0 12 4 12 8 0 4 12
13 28 19 15 7 34 17 42 22 8 6 40 22 70 36 30 14 75 36 100 49 89 46 156 76
169 76 7 0 27 10 44 22 35 25 337 178 351 178 14 0 100 44 108 55 4 5 8 6 8 1
0 -4 15 2 33 16 31 23 88 52 96 48 2 -1 7 2 10 7 7 10 118 64 127 62 4 0 10 3
13 8 9 12 72 41 106 49 17 4 41 15 54 26 13 10 30 18 37 18 8 0 14 5 14 10 0
6 6 10 12 10 13 0 119 50 128 60 3 4 21 12 40 20 19 8 53 25 75 37 22 13 52
29 68 35 15 7 27 16 27 20 0 4 7 8 16 8 8 0 39 22 67 48 29 27 60 52 70 55 9
4 20 15 24 24 4 10 26 40 50 67 24 27 50 63 58 80 8 17 21 42 29 56 24 42 46
97 46 117 0 10 4 23 9 28 39 40 40 393 1 440 -5 6 -11 27 -15 48 -4 20 -11 37
-16 37 -5 0 -9 8 -9 18 0 9 -7 28 -15 42 -8 14 -21 40 -30 58 -8 17 -20 32
-25 32 -6 0 -10 6 -10 14 0 7 -44 58 -99 112 -72 72 -117 108 -167 134 -38 19
-72 35 -76 35 -3 0 -10 3 -14 8 -4 4 -14 7 -23 7 -9 0 -29 7 -44 15 -16 8 -52
18 -80 21 -29 4 -54 10 -57 13 -3 3 -66 3 -140 0z m-1840 -5301 c0 -112 3
-301 7 -420 l6 -218 -551 0 -552 0 0 -115 0 -115 520 0 520 0 0 -410 0 -410
-520 0 -520 0 0 -115 0 -115 570 0 570 0 0 -425 0 -425 -1119 0 -1118 0 -7
126 c-4 70 -4 738 0 1485 l7 1359 1094 0 1093 0 0 -202z"/>
<path d="M10361 13114 c0 -11 3 -14 6 -6 3 7 2 16 -1 19 -3 4 -6 -2 -5 -13z"/>
<path d="M10246 12793 c-6 -14 -5 -15 5 -6 7 7 10 15 7 18 -3 3 -9 -2 -12 -12z"/>
<path d="M10155 12680 c-3 -6 1 -7 9 -4 18 7 21 14 7 14 -6 0 -13 -4 -16 -10z"/>
<path d="M10040 12580 c-9 -6 -10 -10 -3 -10 6 0 15 5 18 10 8 12 4 12 -15 0z"/>
<path d="M9808 12443 c7 -3 16 -2 19 1 4 3 -2 6 -13 5 -11 0 -14 -3 -6 -6z"/>
<path d="M9758 12433 c7 -3 16 -2 19 1 4 3 -2 6 -13 5 -11 0 -14 -3 -6 -6z"/>
<path d="M9568 12403 c17 -2 47 -2 65 0 17 2 3 4 -33 4 -36 0 -50 -2 -32 -4z"/>
<path d="M6180 11529 c-202 -20 -462 -89 -600 -159 -288 -145 -511 -420 -594
-730 -57 -211 -57 -404 0 -610 15 -52 27 -103 27 -112 1 -22 3 -22 58 -2 36
12 45 13 52 2 64 -108 91 -147 139 -202 73 -85 95 -141 81 -207 -5 -27 -8 -49
-7 -49 1 0 23 38 49 85 25 47 49 85 53 85 4 0 39 -21 77 -46 161 -105 404
-204 592 -240 120 -23 276 -23 325 0 44 21 53 41 33 72 -18 28 -47 36 -230 69
-188 34 -302 66 -446 124 -466 190 -660 424 -676 818 -9 202 17 325 104 498
152 300 406 477 800 556 136 27 462 38 610 20 225 -28 446 -92 627 -183 94
-47 238 -137 250 -156 3 -5 -32 -76 -77 -159 -197 -360 -322 -583 -328 -583
-3 0 -48 26 -100 57 -114 69 -259 134 -377 169 -68 21 -116 27 -223 31 -144 6
-193 -2 -224 -37 -44 -49 11 -79 205 -110 265 -42 577 -155 769 -280 58 -37
63 -39 58 -19 -13 48 19 121 180 410 188 339 196 363 149 432 -30 43 -31 47
-13 47 7 0 24 11 38 23 13 13 31 26 39 29 9 3 -13 24 -58 55 -311 218 -898
348 -1362 302z"/>
<path d="M9716 11437 c-11 -7 -42 -27 -70 -44 -28 -18 -56 -33 -63 -33 -7 0
-13 -4 -13 -10 0 -5 -16 -12 -35 -16 -19 -3 -39 -11 -43 -18 -10 -15 -90 -53
-132 -61 -19 -4 -42 -13 -50 -20 -8 -7 -30 -16 -47 -20 l-33 -7 0 57 c0 60
-18 103 -51 124 -19 11 -20 -4 -17 -866 3 -812 5 -881 21 -924 25 -65 73 -118
131 -145 50 -23 111 -32 118 -16 4 9 110 62 126 62 6 0 12 4 12 8 0 11 80 36
88 28 3 -3 0 -18 -7 -33 l-13 -28 22 20 c36 33 68 96 79 159 13 69 16 1796 4
1795 -5 0 -17 -6 -27 -12z"/>
<path d="M3620 10410 l0 -990 223 0 c159 1 227 4 238 13 13 10 -5 12 -90 12
-123 0 -159 14 -185 69 -14 31 -16 113 -16 820 0 592 3 786 12 786 6 0 9 2 6
5 -2 3 -30 -4 -61 -14 l-57 -20 0 115 c0 122 -10 157 -51 182 -19 12 -19 -11
-19 -978z"/>
<path d="M7723 10275 c-3 -9 -3 -18 -1 -21 3 -3 8 4 11 16 6 23 -1 27 -10 5z"/>
<path d="M7691 10203 c0 -13 -6 -23 -12 -23 -5 0 -7 -5 -3 -11 9 -16 27 16 21
39 -3 12 -5 11 -6 -5z"/>
<path d="M6909 7948 c10 -35 67 -218 125 -408 59 -190 150 -484 203 -655 52
-170 99 -317 103 -324 10 -18 22 19 352 1094 121 391 110 350 87 329 -12 -11
-44 -96 -85 -223 -114 -361 -116 -364 -149 -381 -16 -8 -35 -21 -43 -27 -7 -7
-20 -13 -28 -13 -9 0 -30 -11 -47 -24 -18 -13 -50 -29 -72 -36 -22 -7 -49 -19
-60 -25 -11 -7 -38 -18 -60 -25 -22 -7 -43 -18 -47 -24 -4 -6 -9 -8 -11 -6 -3
3 -55 167 -117 365 -96 306 -147 445 -165 445 -2 0 5 -28 14 -62z"/>
<path d="M3895 6654 c-62 -30 -77 -42 -63 -46 7 -3 18 0 25 6 33 30 43 36 74
45 20 5 26 9 14 10 -11 0 -33 -6 -50 -15z"/>
<path d="M3775 6590 c-13 -5 -14 -9 -5 -9 8 0 24 4 35 9 13 5 14 9 5 9 -8 0
-24 -4 -35 -9z"/>
<path d="M3735 6570 c-3 -5 -1 -10 4 -10 6 0 11 5 11 10 0 6 -2 10 -4 10 -3 0
-8 -4 -11 -10z"/>
<path d="M3686 6551 c-11 -4 -15 -10 -10 -13 5 -4 18 0 29 8 20 15 12 17 -19
5z"/>
<path d="M3630 6520 c-18 -12 -2 -12 25 0 13 6 15 9 5 9 -8 0 -22 -4 -30 -9z"/>
<path d="M3565 6485 c-25 -12 -26 -14 -5 -9 28 7 60 23 45 23 -5 0 -23 -6 -40
-14z"/>
<path d="M3490 6450 c-18 -12 -2 -12 25 0 13 6 15 9 5 9 -8 0 -22 -4 -30 -9z"/>
<path d="M3425 6415 c-25 -12 -26 -14 -5 -9 28 7 60 23 45 23 -5 0 -23 -6 -40
-14z"/>
<path d="M3278 6343 c6 -2 18 -2 25 0 6 3 1 5 -13 5 -14 0 -19 -2 -12 -5z"/>
<path d="M3240 6320 c-9 -6 -10 -10 -3 -10 6 0 15 5 18 10 8 12 4 12 -15 0z"/>
<path d="M3198 6303 c7 -3 16 -2 19 1 4 3 -2 6 -13 5 -11 0 -14 -3 -6 -6z"/>
<path d="M2880 6140 c-9 -6 -10 -10 -3 -10 6 0 15 5 18 10 8 12 4 12 -15 0z"/>
<path d="M7250 4091 c0 -5 -22 -11 -50 -15 -27 -4 -50 -10 -50 -15 0 -5 -15
-11 -32 -15 -18 -3 -71 -25 -117 -49 -66 -33 -105 -62 -182 -139 -55 -53 -99
-104 -99 -112 0 -9 -5 -16 -10 -16 -6 0 -13 -8 -17 -17 -3 -10 -11 -25 -18
-33 -6 -8 -17 -34 -25 -57 -7 -24 -17 -43 -21 -43 -4 0 -10 -14 -14 -30 -4
-17 -14 -44 -22 -61 -32 -65 -26 -436 7 -447 6 -2 10 -10 10 -19 0 -8 7 -31
16 -51 38 -90 60 -130 96 -174 21 -26 38 -50 38 -55 0 -12 133 -143 143 -140
4 1 22 -10 40 -24 18 -14 43 -30 57 -34 13 -4 43 -18 67 -31 24 -12 69 -28
101 -35 31 -7 61 -16 67 -21 12 -10 325 -11 325 0 0 4 26 13 59 20 32 7 80 24
106 38 26 13 50 22 53 20 3 -3 23 8 45 24 23 17 46 30 52 30 14 0 185 172 185
187 0 7 6 16 13 20 33 21 90 131 102 196 4 20 11 40 16 42 4 3 11 26 15 50 3
25 10 48 15 51 12 7 12 251 0 258 -4 3 -11 29 -14 57 -4 28 -11 56 -16 63 -5
6 -15 33 -21 59 -7 26 -16 47 -21 47 -5 0 -9 9 -9 19 0 11 -7 26 -15 35 -8 8
-15 19 -15 23 0 5 -16 28 -35 50 -19 23 -35 45 -35 50 0 11 -123 133 -134 133
-4 0 -25 13 -46 30 -20 16 -40 27 -44 23 -3 -3 -6 -1 -6 5 0 6 -13 13 -30 17
-16 4 -30 10 -30 15 0 4 -20 13 -44 19 -25 6 -47 15 -51 20 -3 5 -30 13 -60
16 -30 4 -55 11 -55 16 0 5 -65 9 -145 9 -80 0 -145 -4 -145 -9z"/>
</g>
</svg>
